<svg xmlns="http://www.w3.org/2000/svg" xmlns:xlink="http://www.w3.org/1999/xlink" width="51" height="53" viewBox="0 0 51 53">
  <defs>
    <clipPath id="clip-path">
      <rect id="Rectangle_4" data-name="Rectangle 4" width="51" height="53" transform="translate(1776 40)" fill="#c5c3c3" stroke="#707070" stroke-width="1"/>
    </clipPath>
  </defs>
  <g id="Mask_Group_29" data-name="Mask Group 29" transform="translate(-1776 -40)" clip-path="url(#clip-path)">
    <path id="like" d="M47.279,7.4a12.846,12.846,0,0,0-20.51,1.476A19.648,19.648,0,0,0,25.5,10.932a19.482,19.482,0,0,0-1.269-2.058A12.846,12.846,0,0,0,3.721,7.4,15.459,15.459,0,0,0,0,17.666c0,4.243,1.657,8.191,5.215,12.421,3.179,3.785,7.753,7.679,13.049,12.192,1.973,1.681,4.014,3.421,6.188,5.322l.065.057a1.494,1.494,0,0,0,1.968,0l.066-.057c2.172-1.9,4.213-3.641,6.187-5.322,5.3-4.513,9.87-8.411,13.049-12.192C49.343,25.857,51,21.914,51,17.666A15.459,15.459,0,0,0,47.279,7.4ZM30.8,40c-1.7,1.45-3.451,2.942-5.3,4.547-1.846-1.6-3.6-3.1-5.3-4.547C9.836,31.172,2.988,25.337,2.988,17.666A12.48,12.48,0,0,1,5.963,9.374a9.975,9.975,0,0,1,7.584-3.414A10.073,10.073,0,0,1,21.793,10.6a17.717,17.717,0,0,1,2.291,4.548,1.494,1.494,0,0,0,2.841,0A17.717,17.717,0,0,1,29.215,10.6,9.855,9.855,0,0,1,45.037,9.374a12.486,12.486,0,0,1,2.974,8.291C48.012,25.337,41.165,31.172,30.8,40Z" transform="translate(1776 41)" fill="#8e8e8e"/>
  </g>
</svg>
