<svg width="0" height="0" class="hidden">
  <symbol xmlns="http://www.w3.org/2000/svg" viewBox="0 0 51 53" id="heart">
    <!-- <defs>
      <clipPath id="a">
        <path transform="translate(1776 40)" fill="#c5c3c3" stroke="#707070" d="M0 0h51v53H0z"></path>
      </clipPath>
    </defs> -->
    <g transform="translate(-1776 -40)" clip-path="url(#a)">
      <path d="M1823.279 48.4a12.846 12.846 0 00-20.51 1.476 19.648 19.648 0 00-1.269 2.056 19.482 19.482 0 00-1.269-2.058 12.846 12.846 0 00-20.51-1.474A15.459 15.459 0 001776 58.666c0 4.243 1.657 8.191 5.215 12.421 3.179 3.785 7.753 7.679 13.049 12.192a620.978 620.978 0 016.188 5.322l.065.057a1.494 1.494 0 001.968 0l.066-.057c2.172-1.9 4.213-3.641 6.187-5.322 5.3-4.513 9.87-8.411 13.049-12.192 3.556-4.23 5.213-8.173 5.213-12.421a15.459 15.459 0 00-3.721-10.266zM1806.8 81c-1.7 1.45-3.451 2.942-5.3 4.547-1.846-1.6-3.6-3.1-5.3-4.547-10.364-8.828-17.212-14.663-17.212-22.334a12.48 12.48 0 012.975-8.292 9.975 9.975 0 017.584-3.414 10.073 10.073 0 018.246 4.64 17.717 17.717 0 012.291 4.548 1.494 1.494 0 002.841 0 17.717 17.717 0 012.29-4.548 9.855 9.855 0 0115.822-1.226 12.486 12.486 0 012.974 8.291c.001 7.672-6.846 13.507-17.211 22.335z"></path>
    </g>
  </symbol>
</svg>