<svg id="Lag_1" data-name="Lag 1" xmlns="http://www.w3.org/2000/svg" width="149.11mm" height="21.82mm" viewBox="0 0 422.67 61.85">
  <defs>
    <style>
      .cls-1 {
        fill: #fff;
      }
    </style>
  </defs>
  <g>
    <path class="cls-1" d="M463.11,391.3v59.26h17.23v-26a2.15,2.15,0,0,1,.56.86c3.17,8,6.36,16,9.49,24.06a1.61,1.61,0,0,0,1.82,1.2c5.15-.05,10.31,0,15.47,0H509V391.37h-17.2v25.86a2.24,2.24,0,0,1-.71-1q-5.16-11.92-10.29-23.86a1.52,1.52,0,0,0-1.67-1.1c-3.84.05-7.68,0-11.52,0Zm-331.56,18c0-2.2.06-4.31,0-6.42-.2-5.23-2.83-8.67-7.77-10.36-.38-.13-.74-.29-1.12-.42-6.21-2.12-12.61-2.33-19.07-1.78a28.07,28.07,0,0,0-9.81,2.5c-3,1.44-5.51,3.45-6.49,6.81a23.44,23.44,0,0,0-.43,11.73,13.38,13.38,0,0,0,7.36,9.25c5.15,2.72,10.29,5.48,15.5,8.1a7,7,0,0,1,4.07,6.51,19.39,19.39,0,0,1,0,2.64,6.79,6.79,0,0,1-.59,2.17c-.74,1.5-2.36,2.08-4.47,1.73-1.53-.25-2.23-.91-2.38-2.81-.19-2.35-.16-4.71-.21-7.06,0-.83,0-1.65,0-2.46H86.83c.18,3.09.3,6.07.55,9.05.43,5.29,3.36,8.69,8.16,10.72a36.42,36.42,0,0,0,13.3,2.69c6.06.16,12-.48,17.55-3.05,3.81-1.75,6.21-4.48,6.75-8.75a36.14,36.14,0,0,0-.08-9.91c-.65-4.32-2.59-7.8-6.42-10q-4.65-2.72-9.42-5.23c-2.79-1.45-5.73-2.64-8.49-4.16s-4-5.94-2.53-8.84a3.56,3.56,0,0,1,4-1.7c1.47.23,2,.81,2.21,2.64.16,1.63.12,3.27.16,4.91,0,.49,0,1,0,1.53Zm290.59-17.87h-35.6v59.13h35.59V436.64H405.19v-10h16.95V413.34h-17V405.2h17Zm-110.43,0v59.21h18.6V428.64h16.1V414.32H330.34V406.2h16.07V391.35Zm-37,42.3H255.23V391.39H236.71v59.16h38Zm-99.81-42.29v59.2h19.48v-59.2Z" transform="translate(-86.3 -390.02)"/>
    <path d="M463.11,391.3h4.47c3.84,0,7.68,0,11.52,0a1.52,1.52,0,0,1,1.67,1.1q5.12,11.94,10.29,23.86a2.24,2.24,0,0,0,.71,1V391.37H509v59.25h-1.29c-5.16,0-10.32,0-15.47,0a1.61,1.61,0,0,1-1.82-1.2c-3.13-8-6.32-16.05-9.49-24.06a2.15,2.15,0,0,0-.56-.86v26H463.11Z" transform="translate(-86.3 -390.02)"/>
    <path d="M131.55,409.26h-19c0-.54,0-1,0-1.53,0-1.64,0-3.28-.16-4.91-.17-1.83-.74-2.41-2.21-2.64a3.56,3.56,0,0,0-4,1.7c-1.44,2.9-.3,7.28,2.53,8.84s5.7,2.71,8.49,4.16q4.77,2.5,9.42,5.23c3.83,2.23,5.77,5.71,6.42,10a36.14,36.14,0,0,1,.08,9.91c-.54,4.27-2.94,7-6.75,8.75-5.59,2.57-11.49,3.21-17.55,3.05a36.42,36.42,0,0,1-13.3-2.69c-4.8-2-7.73-5.43-8.16-10.72-.25-3-.37-6-.55-9.05h19.31c0,.81,0,1.63,0,2.46,0,2.35,0,4.71.21,7.06.15,1.9.85,2.56,2.38,2.81,2.11.35,3.73-.23,4.47-1.73a6.79,6.79,0,0,0,.59-2.17,19.39,19.39,0,0,0,0-2.64,7,7,0,0,0-4.07-6.51c-5.21-2.62-10.35-5.38-15.5-8.1a13.38,13.38,0,0,1-7.36-9.25,23.44,23.44,0,0,1,.43-11.73c1-3.36,3.47-5.37,6.49-6.81a28.07,28.07,0,0,1,9.81-2.5c6.46-.55,12.86-.34,19.07,1.78.38.13.74.29,1.12.42,4.94,1.69,7.57,5.13,7.77,10.36C131.61,405,131.55,407.06,131.55,409.26Z" transform="translate(-86.3 -390.02)"/>
    <path d="M422.14,391.39v13.8h-17v8.14h17v13.34H405.19v10h16.94v13.89H386.54V391.4Z" transform="translate(-86.3 -390.02)"/>
    <path d="M311.71,391.35h34.7V406.2H330.34v8.12h16.07v14.32h-16.1v21.92h-18.6Z" transform="translate(-86.3 -390.02)"/>
    <path d="M274.68,433.65v16.9h-38V391.39h18.52v42.26Z" transform="translate(-86.3 -390.02)"/>
    <path d="M174.87,391.36h19.48v59.2H174.87Z" transform="translate(-86.3 -390.02)"/>
  </g>
</svg>
