<svg xmlns="http://www.w3.org/2000/svg" width="492.48" height="320" viewBox="0 0 492.48 320">
  <defs>
    <style>
      .cls-1 {
        fill: #398f33;
      }

      .cls-2 {
        fill: #fcfcfc;
      }
    </style>
  </defs>
  <g id="Layer_2" data-name="Layer 2">
    <g>
      <rect class="cls-1" x="-0.97" y="0.71" width="493.46" height="318.57"/>
      <g>
        <path class="cls-2" d="M153.29,126.74C162.85,112.9,203.13,61,270.5,58.56c0,0-55.89,19-69.48,42.53,0,0,29.08,21.06,53.32,8s46.79-53.31,117.15-41.15C345.23,10.24,182.21-9.72,178.93,76.33c-9.54,9.26-27.47,26-37.94,43.61-2.27,3.82-.05,8.64,4.52,9.68l.26.06A7.37,7.37,0,0,0,153.29,126.74Z"/>
        <path class="cls-2" d="M270.39,258.19c-17.72-.75-86.41-7.09-122.36-59.9,0,0,45.72,35.31,74.51,34.45,0,0,5.16-33.85-19.2-46.74s-73.26-10.87-97.07-73.38c-40.8,49.9,22,190.61,104.16,150.22,13.43,3,38.08,9,59.76,8.62,4.7-.09,8.1-4.29,6.78-8.47,0-.08-.05-.16-.07-.24A7.07,7.07,0,0,0,270.39,258.19Z"/>
        <path class="cls-2" d="M334.78,98.55c8.16,14.59,36.57,72.85,5.16,128.09,0,0,10.16-54.33-5-77,0,0-34.23,12.78-34.11,38.77S327.25,252.61,280.7,303c67.06,7.77,167.24-113,88.41-158.64-3.9-12.28-10.62-35-21.82-52.23A7.53,7.53,0,0,0,336,90.88l-.18.18A6.21,6.21,0,0,0,334.78,98.55Z"/>
      </g>
    </g>
  </g>
</svg>
