<svg xmlns="http://www.w3.org/2000/svg" xmlns:xlink="http://www.w3.org/1999/xlink" width="51" height="53" viewBox="0 0 51 53">
  <defs>
    <clipPath id="clip-path">
      <rect id="Rectangle_5" data-name="Rectangle 5" width="51" height="53" transform="translate(1849 40)" fill="#c5c3c3" stroke="#707070" stroke-width="1"/>
    </clipPath>
  </defs>
  <g id="Mask_Group_28" data-name="Mask Group 28" transform="translate(-1849 -40)" clip-path="url(#clip-path)">
    <g id="bag" transform="translate(1848 40)">
      <path id="Path_17" data-name="Path 17" d="M45.878,45.775,43.063,14.761a1.664,1.664,0,0,0-1.656-1.511H36.438V9.938a9.938,9.938,0,0,0-19.875,0V13.25H11.594a1.647,1.647,0,0,0-1.646,1.511L7.122,45.775A6.622,6.622,0,0,0,13.726,53H39.284a6.607,6.607,0,0,0,6.594-7.225Zm-26-35.837A6.631,6.631,0,0,1,26.5,3.313a6.609,6.609,0,0,1,6.625,6.625V13.25H19.875ZM41.727,48.611a3.269,3.269,0,0,1-2.443,1.077H13.726a3.3,3.3,0,0,1-3.292-3.613l2.671-29.512h3.457v4.969a1.656,1.656,0,0,0,3.313,0V16.563h13.25v4.969a1.656,1.656,0,0,0,3.313,0V16.563h3.457l2.681,29.512A3.3,3.3,0,0,1,41.727,48.611Z" fill="#8e8e8e"/>
    </g>
  </g>
</svg>
